<?xml version="1.0" encoding="UTF-8"?><svg id="Layer_2" xmlns="http://www.w3.org/2000/svg" viewBox="0 0 924.85 339.94"><defs><style>.cls-1,.cls-2{fill:#fff;stroke:#fff;stroke-linecap:round;stroke-linejoin:round;}.cls-2{fill-rule:evenodd;}</style></defs><g id="Layer_2-2"><g><g><path class="cls-2" d="M48.81,241.39h21.77v-57.88l13.95-17.83V72.92h11.33v94.58l-14.45,17.64v114.75l-16.46,15.39,.19,13.33h11.45l6.38-10.89,11.45,.38h13.7v-39.98l-13.27-13.89,.19-70.2,13.08-13.7V72.92h11.14v111.59l-13.7,15.14v58.75l13.45,11.45v51.06s-1.5,7.7-9.39,7.7h-16.83v10.83H54.45v-26.03l15.96-16.14v-47.18h-22.9l1.31-8.7Z"/><rect class="cls-1" x="137.04" y="121.76" width="25.72" height="54.25"/><rect class="cls-1" x="176.08" y="91.07" width="25.72" height="84.94"/><rect class="cls-1" x="214.75" y="55.89" width="25.72" height="120.12"/><polygon class="cls-2" points="33.61 202.66 62.14 202.66 62.14 227.81 54.26 227.81 54.26 211.55 33.61 211.55 33.61 202.66"/><path class="cls-2" d="M126.34,192.58h137.03v10.87s-5.26,17.41-18.21,17.41h-20.46s-23.45,11.37-34.15,39.51c-10.7,28.15,16.32,48.63,29.83,52.15v26.91h-32.66s-7.69-11.9-18.21-11.9l-43.17,.17v-79.44s0-9.26,9.01-9.26h18.4l12.01-6.67,3.19,7.78-9.39,6.11v35.93h-7.7v-33.7h-17.64v67.59h39.61s10.95-.37,19.9,11.85l16.89-.19v-9.26s-33.56-16.1-30.97-46.9c1.55-18.42,11.09-41.4,42.61-60.32h23.46s6.95-2.96,6.95-8.7H126.34v-9.95Z"/><rect class="cls-1" x="126.34" y="217.68" width="29.66" height="11.45"/><path class="cls-2" d="M22.37,192.58c-8.51,0-15.41,6.9-15.41,15.41s6.9,15.41,15.41,15.41,15.41-6.9,15.41-15.41-6.9-15.41-15.41-15.41Zm0,18.96c-1.96,0-3.55-1.59-3.55-3.55s1.59-3.55,3.55-3.55,3.55,1.59,3.55,3.55-1.59,3.55-3.55,3.55Z"/><path class="cls-2" d="M177.86,219.42c-7.23,0-13.09,5.86-13.09,13.09s5.86,13.09,13.09,13.09,13.09-5.86,13.09-13.09-5.86-13.09-13.09-13.09Zm0,16.11c-1.67,0-3.02-1.35-3.02-3.02s1.35-3.02,3.02-3.02,3.02,1.35,3.02,3.02-1.35,3.02-3.02,3.02Z"/><path class="cls-2" d="M156,280.79c-7.23,0-13.09,5.86-13.09,13.09s5.86,13.09,13.09,13.09,13.09-5.86,13.09-13.09-5.86-13.09-13.09-13.09Zm0,16.11c-1.67,0-3.02-1.35-3.02-3.02s1.35-3.02,3.02-3.02,3.02,1.35,3.02,3.02-1.35,3.02-3.02,3.02Z"/><path class="cls-2" d="M36.9,231.61c-7.23,0-13.09,5.86-13.09,13.09s5.86,13.09,13.09,13.09,13.09-5.86,13.09-13.09-5.86-13.09-13.09-13.09Zm0,16.11c-1.67,0-3.02-1.35-3.02-3.02s1.35-3.02,3.02-3.02,3.02,1.35,3.02,3.02-1.35,3.02-3.02,3.02Z"/><g><path class="cls-2" d="M75.28,15.68c-1.02,0-1.86,.83-1.86,1.86s.83,1.86,1.86,1.86,1.86-.83,1.86-1.86-.83-1.86-1.86-1.86Z"/><path class="cls-2" d="M162.94,.5s-6.01,12.95-17.64,12.95S126.34,.5,126.34,.5h-52.56S28.8,9.57,1.14,64.88c-2.44,4.88,2.63,9.95,6.76,7.32,4.13-2.63,19.52-27.78,59.88-27.78,0,0,11.85,1.66,14.08,15.02,.19,1.13,38.86,0,38.86,0,0,0,4.32-17.08,21.02-17.08s19.52,11.83,19.52,11.83h34.91V.5h-33.22Zm-42.67,19.71h-37.4c-1.1,3.13-4.08,5.38-7.59,5.38-4.45,0-8.06-3.61-8.06-8.06s3.61-8.06,8.06-8.06c3.51,0,6.49,2.25,7.59,5.38h37.4v5.35Z"/></g></g><g><g><path class="cls-1" d="M295.86,79.36c0-10.61,4.27-14.88,14.06-14.88h24.53c30.45,0,48.37,19.29,48.37,52.5s-18.19,54.85-48.37,54.85h-24.53c-9.78,0-14.06-4.27-14.06-14.75V79.36Zm13.09,75.79c0,3.17,1.65,4.68,4.41,4.68h20.39c22.32,0,35.42-15.85,35.42-42.72s-12.26-40.79-35-40.79h-20.67c-2.62,0-4.55,1.65-4.55,4.55v74.28Z"/><path class="cls-1" d="M408.71,136c.28,16.95,8.68,27.56,23.56,27.56,9.92,0,15.43-4.96,18.74-12.26,1.24-2.48,3.03-3.45,4.96-3.45,.96,0,1.93,.28,2.89,.55,2.34,.69,4.27,2.34,4.27,4.82,0,.83-.14,1.65-.69,2.48-4.41,9.09-12.4,18.19-30.32,18.19-22.6,0-35.69-15.99-35.69-39.83s12.4-40.51,34.86-40.51c20.12,0,31.42,15.71,32.8,33.76v1.1c0,4.96-2.62,7.58-6.89,7.58h-48.51Zm40.79-10.06c1.52,0,2.07-.55,2.07-1.79v-.69c-1.65-9.78-7.58-19.84-20.26-19.84s-20.39,8.82-22.19,22.32h40.38Z"/><path class="cls-1" d="M487.26,78.81c0-3.58,2.34-5.51,6.2-5.51,3.58,0,6.2,1.93,6.2,5.51v16.67h17.64c3.45,0,5.1,2.21,5.1,5.51s-1.79,5.37-5.1,5.37h-17.64v46.16c0,6.75,2.89,9.65,7.99,9.65,3.44,0,5.79-.96,8.13-2.34,.83-.41,1.65-.69,2.48-.69,2.07,0,3.72,1.52,4.55,3.58,.41,.96,.55,2.07,.55,3.03,0,1.93-.83,3.86-2.89,4.96-4,1.93-7.72,3.03-13.64,3.03-11.3,0-19.57-5.65-19.57-20.12v-47.27h-10.75c-3.31,0-4.82-2.21-4.82-5.37s1.52-5.51,4.96-5.51h10.61v-16.67Z"/><path class="cls-1" d="M543.34,136c.28,16.95,8.68,27.56,23.56,27.56,9.92,0,15.43-4.96,18.74-12.26,1.24-2.48,3.03-3.45,4.96-3.45,.96,0,1.93,.28,2.89,.55,2.34,.69,4.27,2.34,4.27,4.82,0,.83-.14,1.65-.69,2.48-4.41,9.09-12.4,18.19-30.32,18.19-22.6,0-35.69-15.99-35.69-39.83s12.4-40.51,34.86-40.51c20.12,0,31.42,15.71,32.8,33.76v1.1c0,4.96-2.62,7.58-6.89,7.58h-48.51Zm40.79-10.06c1.52,0,2.07-.55,2.07-1.79v-.69c-1.65-9.78-7.58-19.84-20.26-19.84s-20.39,8.82-22.19,22.32h40.38Z"/><path class="cls-1" d="M644.9,93.42c18.19,0,25.63,10.06,29.08,18.74,.28,.69,.41,1.52,.41,2.07,0,2.62-2.07,4.27-4.13,5.1-.96,.28-2.07,.41-3.03,.41-2.07,0-3.86-.83-4.82-3.17-2.62-7.03-6.75-12.4-17.23-12.4-14.33,0-22.19,12.13-22.19,29.63s7.72,29.49,22.32,29.49c10.75,0,15.02-5.24,17.64-12.68,.96-2.62,2.89-3.72,5.1-3.72,.96,0,1.93,.14,2.89,.55,2.48,.55,4.41,2.2,4.41,4.68,0,.83-.14,1.52-.55,2.48-3.72,9.51-11.02,19.43-29.77,19.43-22.32,0-34.86-16.4-34.86-40.1s12.13-40.51,34.73-40.51Z"/><path class="cls-1" d="M698.22,78.81c0-3.58,2.34-5.51,6.2-5.51,3.58,0,6.2,1.93,6.2,5.51v16.67h17.64c3.45,0,5.1,2.21,5.1,5.51s-1.79,5.37-5.1,5.37h-17.64v46.16c0,6.75,2.89,9.65,7.99,9.65,3.44,0,5.79-.96,8.13-2.34,.83-.41,1.65-.69,2.48-.69,2.07,0,3.72,1.52,4.55,3.58,.41,.96,.55,2.07,.55,3.03,0,1.93-.83,3.86-2.89,4.96-4,1.93-7.72,3.03-13.64,3.03-11.3,0-19.57-5.65-19.57-20.12v-47.27h-10.75c-3.31,0-4.82-2.21-4.82-5.37s1.52-5.51,4.96-5.51h10.61v-16.67Z"/><path class="cls-1" d="M761.19,72.74c0,5.38-4.13,9.37-9.23,9.37s-9.37-4-9.37-9.37,4.13-9.23,9.37-9.23,9.23,4,9.23,9.23Zm-15.57,27.29c0-3.58,2.34-5.37,6.2-5.37s6.34,1.79,6.34,5.37v67.11c0,3.72-2.62,5.51-6.34,5.51s-6.2-1.79-6.2-5.51V100.03Z"/><path class="cls-1" d="M844.98,133.52c0,23.98-13.23,40.51-34.73,40.51-22.74,0-35.97-15.99-35.97-40.51s13.37-39.96,35.69-39.96,35,15.99,35,39.96Zm-58.01,.41c0,17.5,8.27,29.49,22.46,29.49,15.02,0,22.88-11.71,22.88-30.04,0-17.36-7.86-29.21-21.91-29.21-14.88,0-23.43,11.44-23.43,29.77Z"/><path class="cls-1" d="M924.35,167.14c0,3.72-2.76,5.51-6.34,5.51s-6.34-1.79-6.34-5.51v-44.1c0-11.71-4.69-18.33-15.02-18.33-7.44,0-13.64,3.31-18.33,9.78-3.45,4.68-4.82,8.68-4.82,14.06v38.58c0,3.72-2.62,5.51-6.2,5.51-3.86,0-6.34-1.79-6.34-5.51V100.03c0-3.58,2.62-5.37,6.48-5.37,3.58,0,6.06,1.79,6.06,5.37v3.72c0,1.79-.41,3.17-.55,5.79,4.82-9.78,13.09-15.99,26.18-15.99,16.4,0,25.22,9.92,25.22,26.87v46.71Z"/></g><g><path class="cls-1" d="M308.95,296.2c0,3.86-2.76,5.79-6.61,5.79s-6.48-1.93-6.48-5.93v-87.5c0-10.61,4.27-14.75,14.06-14.75h54.71c3.72,0,5.65,2.48,5.65,5.93s-1.93,6.06-5.65,6.06h-51.4c-2.62,0-4.27,1.65-4.27,4.41v29.76h47.96c3.58,0,5.37,2.48,5.37,5.93,0,3.17-1.93,5.79-5.37,5.79h-47.96v44.51Z"/><path class="cls-1" d="M450.88,262.85c0,23.98-13.23,40.51-34.73,40.51-22.74,0-35.97-15.99-35.97-40.51s13.37-39.96,35.69-39.96,35,15.99,35,39.96Zm-58.01,.41c0,17.5,8.27,29.49,22.46,29.49,15.02,0,22.88-11.71,22.88-30.04,0-17.36-7.85-29.21-21.91-29.21-14.88,0-23.43,11.44-23.43,29.77Z"/><path class="cls-1" d="M468.79,229.36c0-3.58,2.62-5.37,6.48-5.37,3.44,0,6.2,1.79,6.2,5.37v3.03c0,1.93-.55,4.27-.83,6.48,2.21-6.62,9.23-15.16,21.08-15.57,1.1-.14,2.07-.14,3.03-.14,2.07,0,3.58,.28,5.51,.69,3.17,.41,4.41,2.34,4.41,4.96,0,.69-.14,1.52-.28,2.34-.55,2.89-2.48,5.38-5.38,5.38-.41,0-.83,0-1.24-.14-1.93-.41-3.72-.83-6.61-.83-5.92,.14-10.47,3.17-13.92,7.58-3.58,4.41-5.65,9.51-5.79,15.3v38.03c0,3.72-2.76,5.51-6.2,5.51-3.86,0-6.48-1.79-6.48-5.51v-67.11Z"/><path class="cls-1" d="M580,228.95c0-2.89,1.93-4.96,5.92-4.96,3.72,0,5.93,1.79,5.93,5.51v63.8c0,31.69-16.67,38.86-34.86,38.86-14.88,0-24.39-4.96-29.63-11.71-.69-.96-1.1-1.93-1.1-3.03,0-1.79,.96-3.58,2.62-4.82,1.1-.83,2.62-1.38,4-1.38,1.52,0,2.89,.55,4,1.79,5.1,5.93,11.16,8.82,19.57,8.82,17.23,0,23.43-8.68,23.56-29.08,0-1.65,.28-4.68,.55-6.61-4.55,8.68-12.4,14.75-24.53,14.75-19.57,0-33.21-15.16-33.21-38.17s12.26-39.69,33.49-39.69c12.54,0,20.39,6.89,24.25,15.71-.14-1.52-.55-4.13-.55-5.65v-4.13Zm-44.51,33.76c0,17.5,9.37,28.11,22.19,28.11,14.06,0,22.6-11.99,22.6-29.08s-8.41-28.25-22.46-28.25-22.32,11.44-22.32,29.21Z"/><path class="cls-1" d="M620.23,265.33c.28,16.95,8.68,27.56,23.56,27.56,9.92,0,15.43-4.96,18.74-12.26,1.24-2.48,3.03-3.45,4.96-3.45,.96,0,1.93,.28,2.89,.55,2.34,.69,4.27,2.34,4.27,4.82,0,.83-.14,1.65-.69,2.48-4.41,9.09-12.4,18.19-30.32,18.19-22.6,0-35.69-15.99-35.69-39.83s12.4-40.51,34.86-40.51c20.12,0,31.42,15.71,32.8,33.76v1.1c0,4.96-2.62,7.58-6.89,7.58h-48.51Zm40.79-10.06c1.52,0,2.07-.55,2.07-1.79v-.69c-1.65-9.78-7.58-19.84-20.26-19.84s-20.39,8.82-22.19,22.32h40.38Z"/></g></g></g></g></svg>